<?xml version="1.0" encoding="UTF-8" standalone="no"?>
<svg
   width="500"
   height="500"
   viewBox="0 0 194.83335 129.16663"
   version="1.1"
   id="svg5"
   sodipodi:docname="StabRiseIcon.svg"
   inkscape:version="1.3.1 (9b9bdc1480, 2023-11-25, custom)"
   xmlns:inkscape="http://www.inkscape.org/namespaces/inkscape"
   xmlns:sodipodi="http://sodipodi.sourceforge.net/DTD/sodipodi-0.dtd"
   xmlns="http://www.w3.org/2000/svg"
   xmlns:svg="http://www.w3.org/2000/svg">
  <sodipodi:namedview
     id="namedview5"
     pagecolor="#ffffff"
     bordercolor="#000000"
     borderopacity="0.25"
     inkscape:showpageshadow="2"
     inkscape:pageopacity="0.0"
     inkscape:pagecheckerboard="0"
     inkscape:deskcolor="#d1d1d1"
     inkscape:zoom="0.9"
     inkscape:cx="262.22222"
     inkscape:cy="463.33333"
     inkscape:window-width="2560"
     inkscape:window-height="1280"
     inkscape:window-x="0"
     inkscape:window-y="0"
     inkscape:window-maximized="1"
     inkscape:current-layer="svg5" />
  <defs
     id="defs4">
    <linearGradient
       id="a"
       x1="18"
       y1="18"
       x2="82"
       y2="18"
       gradientUnits="userSpaceOnUse"
       gradientTransform="matrix(2.3348067,0,0,2.3348067,-17.704565,-51.70061)">
      <stop
         offset="0"
         stop-color="#2d388a"
         id="stop1" />
      <stop
         offset="1"
         stop-color="#00aeef"
         id="stop2" />
    </linearGradient>
    <linearGradient
       id="b"
       gradientTransform="matrix(7.5011281,0,0,1.3283248,21.132104,88.429696)"
       x1="0.2019901"
       y1="12.784785"
       x2="35.752247"
       y2="12.784785"
       gradientUnits="userSpaceOnUse">
      <stop
         offset="0"
         stop-color="#2d388a"
         id="stop3" />
      <stop
         offset="1"
         stop-color="#00aeef"
         id="stop4" />
    </linearGradient>
  </defs>
  <path
     fill="url(#a)"
     d="m 113.04461,-9.6740917 c -5.13027,0 -9.33923,4.2089585 -9.33923,9.33922713 0,4.32686427 2.98903,7.93063747 7.00442,8.97452967 V 32.352428 H 87.361735 V 9.0043621 H 56.644327 C 55.600668,4.9889619 51.996895,1.999942 47.670022,1.999942 c -5.13027,0 -9.339227,4.2089567 -9.339227,9.339227 0,5.130269 4.208957,9.339226 9.339227,9.339226 4.326873,0 7.930646,-2.98902 8.974538,-7.00442 H 82.692122 V 32.352428 H 66.348475 V 48.696075 H 42.635487 c -1.043659,-4.0154 -4.647432,-7.00442 -8.974305,-7.00442 -5.13027,0 -9.339227,4.208957 -9.339227,9.339227 0,5.13027 4.208957,9.339226 9.339227,9.339226 4.326873,0 7.930646,-2.98902 8.974538,-7.00442 H 66.348475 V 76.713757 H 43.000408 v 30.717413 c -4.015387,1.04366 -7.00442,4.64743 -7.00442,8.9743 0,5.13027 4.208957,9.33922 9.339227,9.33922 5.13027,0 9.339227,-4.20895 9.339227,-9.33922 0,-4.32687 -2.989015,-7.93064 -7.00442,-8.97453 V 81.38337 h 18.678453 v 16.343647 h 16.343647 v 23.712993 c -4.015388,1.04366 -7.00442,4.64743 -7.00442,8.9743 0,5.13027 4.208957,9.33922 9.339227,9.33922 5.13027,0 9.339226,-4.20895 9.339226,-9.33922 0,-4.32687 -2.989014,-7.93064 -7.00442,-8.97453 V 97.727017 H 110.7098 v 23.348063 h 30.71743 c 1.04366,4.0154 4.64743,7.00442 8.97429,7.00442 5.13027,0 9.33924,-4.20896 9.33924,-9.33923 0,-5.13027 -4.20897,-9.33922 -9.33924,-9.33922 -4.32686,0 -7.93063,2.98902 -8.97452,7.00442 H 115.37942 V 97.727017 h 16.34364 V 81.38337 h 23.71301 c 1.04366,4.0154 4.64743,7.00442 8.97431,7.00442 5.13027,0 9.33922,-4.208957 9.33922,-9.339227 0,-5.13027 -4.20895,-9.339226 -9.33922,-9.339226 -4.32688,0 -7.93065,2.98902 -8.97454,7.00442 H 131.72306 V 53.365688 h 23.34807 V 22.648272 c 4.01541,-1.043659 7.00444,-4.647433 7.00444,-8.974297 0,-5.1302696 -4.20898,-9.3392263 -9.33925,-9.3392263 -5.13027,0 -9.33922,4.2089567 -9.33922,9.3392263 0,4.326864 2.98903,7.930638 7.00442,8.97453 v 26.04757 H 131.72306 V 32.352428 H 115.37942 V 8.639432 c 4.0154,-1.0436591 7.00442,-4.6474323 7.00442,-8.97429657 0,-5.13026863 -4.20896,-9.33922713 -9.33923,-9.33922713 z m 0,4.6696151 c 2.60659,0 4.66961,2.0630347 4.66961,4.66961203 0,2.60657787 -2.06302,4.66961327 -4.66961,4.66961327 -2.60657,0 -4.66961,-2.0630354 -4.66961,-4.66961327 0,-2.60657733 2.06304,-4.66961203 4.66961,-4.66961203 z M 47.670022,6.6695554 c 2.606592,0 4.669613,2.0630354 4.669613,4.6696136 0,2.606577 -2.063021,4.669613 -4.669613,4.669613 -2.606575,0 -4.669614,-2.063036 -4.669614,-4.669613 0,-2.6065782 2.063039,-4.6696136 4.669614,-4.6696136 z M 152.73632,9.0043621 c 2.6066,0 4.66962,2.0630349 4.66962,4.6696129 0,2.606578 -2.06302,4.669613 -4.66962,4.669613 -2.60657,0 -4.66961,-2.063035 -4.66961,-4.669613 0,-2.606578 2.06304,-4.6696129 4.66961,-4.6696129 z M 71.018088,37.022041 H 127.05345 V 93.057403 H 71.018088 Z m -37.356906,9.339227 c 2.606592,0 4.669613,2.063036 4.669613,4.669614 0,2.606577 -2.063021,4.669613 -4.669613,4.669613 -2.606575,0 -4.669614,-2.063036 -4.669614,-4.669613 0,-2.606578 2.063039,-4.669614 4.669614,-4.669614 z M 164.41038,74.37895 c 2.60657,0 4.66961,2.063035 4.66961,4.669613 0,2.606578 -2.06304,4.669614 -4.66961,4.669614 -2.60658,0 -4.66962,-2.063036 -4.66962,-4.669614 0,-2.606578 2.06304,-4.669613 4.66962,-4.669613 z m -119.075165,37.3569 c 2.606592,0 4.669613,2.06304 4.669613,4.66962 0,2.60657 -2.063021,4.66961 -4.669613,4.66961 -2.606574,0 -4.669613,-2.06304 -4.669613,-4.66961 0,-2.60658 2.063039,-4.66962 4.669613,-4.66962 z m 105.066305,2.33481 c 2.60659,0 4.66961,2.06303 4.66961,4.66961 0,2.60658 -2.06302,4.66962 -4.66961,4.66962 -2.60658,0 -4.66962,-2.06304 -4.66962,-4.66962 0,-2.60658 2.06304,-4.66961 4.66962,-4.66961 z m -65.374591,11.67403 c 2.606592,0 4.669613,2.06304 4.669613,4.66962 0,2.60657 -2.063021,4.66961 -4.669613,4.66961 -2.606575,0 -4.669614,-2.06304 -4.669614,-4.66961 0,-2.60658 2.063039,-4.66962 4.669614,-4.66962 z"
     style="font-style:normal;font-variant:normal;font-weight:400;font-stretch:normal;font-size:medium;line-height:normal;font-family:Sans;-inkscape-font-specification:Sans;text-indent:0;text-align:start;text-decoration:none;text-decoration-line:none;letter-spacing:normal;word-spacing:normal;text-transform:none;writing-mode:lr-tb;direction:ltr;baseline-shift:baseline;text-anchor:start;display:inline;overflow:visible;visibility:visible;opacity:1;fill:url(#a);fill-opacity:1;stroke:none;stroke-width:4.66961;marker:none;enable-background:accumulate"
     id="path4" />
</svg>
