<svg xmlns="http://www.w3.org/2000/svg" width="150" height="35" viewBox="0 50 400 20">
  <defs>
    <linearGradient id="a">
      <stop offset="0" stop-color="#2d388a"/>
      <stop offset="1" stop-color="#00aeef"/>
    </linearGradient>
    <linearGradient id="b">
      <stop offset="0" stop-color="#2d388a"/>
      <stop offset="1" stop-color="#00aeef"/>
    </linearGradient>
  </defs>
  <path xmlns="http://www.w3.org/2000/svg" fill="url(#a)" d="M56 18c-2.1973 0-4 1.8027-4 4 0 1.8532 1.2802 3.3967 3 3.8438V36H45V26H31.8437c-.447-1.7198-1.9905-3-3.8437-3-2.1973 0-4 1.8027-4 4 0 2.1973 1.8027 4 4 4 1.8532 0 3.3967-1.2802 3.8438-3H43v8h-7v7H25.8437c-.447-1.7198-1.9905-3-3.8437-3-2.1973 0-4 1.8027-4 4 0 2.1973 1.8027 4 4 4 1.8532 0 3.3967-1.2802 3.8438-3H36v10H26v13.1563c-1.7198.447-3 1.9905-3 3.8437 0 2.1973 1.8027 4 4 4 2.1973 0 4-1.8027 4-4 0-1.8532-1.2802-3.3967-3-3.8438V57h8v7h7v10.1563c-1.7198.447-3 1.9905-3 3.8437 0 2.1973 1.8027 4 4 4 2.1973 0 4-1.8027 4-4 0-1.8532-1.2802-3.3967-3-3.8438V64h10v10h13.1563c.447 1.7198 1.9905 3 3.8437 3 2.1973 0 4-1.8027 4-4 0-2.1973-1.8027-4-4-4-1.8532 0-3.3967 1.2802-3.8438 3H57v-8h7v-7h10.1563c.447 1.7198 1.9905 3 3.8437 3 2.1973 0 4-1.8027 4-4 0-2.1973-1.8027-4-4-4-1.8532 0-3.3967 1.2802-3.8438 3H64V45h10V31.8437c1.7198-.447 3-1.9905 3-3.8437 0-2.1973-1.8027-4-4-4-2.1973 0-4 1.8027-4 4 0 1.8532 1.2802 3.3967 3 3.8438V43h-8v-7h-7V25.8437c1.7198-.447 3-1.9905 3-3.8437 0-2.1973-1.8027-4-4-4zm0 2c1.1164 0 2 .8836 2 2s-.8836 2-2 2-2-.8836-2-2 .8836-2 2-2zm-28 5c1.1164 0 2 .8836 2 2s-.8836 2-2 2-2-.8836-2-2 .8836-2 2-2zm45 1c1.1164 0 2 .8836 2 2s-.8836 2-2 2-2-.8836-2-2 .8836-2 2-2zM38 38h24v24H38V38zm-16 4c1.1164 0 2 .8836 2 2s-.8836 2-2 2-2-.8836-2-2 .8836-2 2-2zm56 12c1.1164 0 2 .8836 2 2s-.8836 2-2 2-2-.8836-2-2 .8836-2 2-2zM27 70c1.1164 0 2 .8836 2 2s-.8836 2-2 2-2-.8836-2-2 .8836-2 2-2zm45 1c1.1164 0 2 .8836 2 2s-.8836 2-2 2-2-.8836-2-2 .8836-2 2-2zm-28 5c1.1164 0 2 .8836 2 2s-.8836 2-2 2-2-.8836-2-2 .8836-2 2-2z" style="font-size:medium;font-style:normal;font-variant:normal;font-weight:400;font-stretch:normal;text-indent:0;text-align:start;text-decoration:none;line-height:normal;letter-spacing:normal;word-spacing:normal;text-transform:none;direction:ltr;block-progression:tb;writing-mode:lr-tb;text-anchor:start;baseline-shift:baseline;opacity:1;fill:url(#a);fill-opacity:1;stroke:none;stroke-width:1.9999998800000001;marker:none;visibility:visible;display:inline;overflow:visible;enable-background:accumulate;font-family:Sans;-inkscape-font-specification:Sans" transform="matrix(1.30208 0 0 1.30208 -3.4375 -3.4375)"/>
  <path fill="url(#b)" d="M6.3 5.38c1.7467 0 3.1366.4 4.17 1.2s1.55 1.9333 1.55 3.4H8.98c-.04-.72-.2833-1.26-.73-1.62s-1.1367-.54-2.07-.54c-.6533 0-1.18.1433-1.58.43S4 8.9333 4 9.44c0 .4133.1233.7133.37.9s.5967.3533 1.05.5 1.2467.36 2.38.64c1.1867.2933 2.1.6133 2.74.96s1.1267.79 1.46 1.33.5 1.2033.5 1.99c0 .9066-.24 1.7133-.72 2.42s-1.18 1.2433-2.1 1.61-1.96.55-3.12.55c-1.7733 0-3.23-.4434-4.37-1.33S.48 16.9066.48 15.36v-.1h3.04c0 .84.2867 1.49.86 1.95s1.3333.69 2.28.69c.84 0 1.5167-.15 2.03-.45s.77-.7434.77-1.33c0-.3867-.14-.7133-.42-.98s-.6533-.4833-1.12-.65-1.2533-.3766-2.36-.63c-1.28-.32-2.2134-.66-2.8-1.02s-1.0333-.7966-1.34-1.31S.96 10.4.96 9.68c0-.8933.2567-1.6733.77-2.34s1.1833-1.16 2.01-1.48 1.68-.48 2.56-.48zm11.36 1.18v3.1h2.08v1.9h-2.08v5.12c0 .48.08.8.24.96s.48.24.96.24c.3467 0 .64-.0267.88-.08v2.22c-.4.0667-.96.1-1.68.1-1.0933 0-1.9067-.1867-2.44-.56s-.8-1.02-.8-1.94v-6.06H13.1v-1.9h1.72v-3.1h2.84zm8.2 2.82c3.0134.0133 4.52.9933 4.52 2.94v5.48c0 1.0133.12 1.7467.36 2.2h-2.88a4.1584 4.1584 0 0 1-.2-1c-.84.8533-2 1.28-3.48 1.28-1.08 0-1.9367-.2733-2.57-.82s-.95-1.3067-.95-2.28c0-.9467.3-1.68.9-2.2.6134-.5467 1.7267-.8933 3.34-1.04 1.1467-.12 1.8733-.27 2.18-.45s.46-.4567.46-.83c0-.4667-.14-.8133-.42-1.04s-.7466-.34-1.4-.34c-.6 0-1.0533.1233-1.36.37s-.4866.6433-.54 1.19h-2.84c.0667-1.1333.5333-1.9933 1.4-2.58s2.0266-.88 3.48-.88zm-2.36 7.68c0 .88.58 1.32 1.74 1.32 1.52-.0133 2.2866-.7933 2.3-2.34v-1.1c-.2267.2267-.8.3933-1.72.5-.8.0933-1.3867.2567-1.76.49s-.56.61-.56 1.13zM35.42 5.72v5.2h.04c.3067-.4667.7433-.84 1.31-1.12s1.2167-.42 1.95-.42c1.2667 0 2.2966.5067 3.09 1.52S43 13.22 43 14.82c0 1.6133-.3933 2.9266-1.18 3.94s-1.8267 1.52-3.12 1.52c-1.68 0-2.8066-.5333-3.38-1.6h-.04V20h-2.7V5.72h2.84zm-.1 9.12c0 1 .22 1.8.66 2.4s1.0267.9 1.76.9c.72 0 1.3033-.2933 1.75-.88s.67-1.3933.67-2.42c0-1.0133-.2167-1.82-.65-2.42s-1.03-.9-1.79-.9c-.7467 0-1.3333.3067-1.76.92s-.64 1.4133-.64 2.4zM52.8 5.72c1.2 0 2.1968.37 2.99 1.11s1.19 1.6833 1.19 2.83c0 1.7867-.7533 2.98-2.26 3.58v.04c.5067.1467.9033.39 1.19.73s.5033.7367.65 1.19.24 1.18.28 2.18c.0533 1.3067.24 2.18.56 2.62h-3.14c-.1734-.44-.3067-1.2667-.4-2.48-.1067-1.28-.34-2.1166-.7-2.51s-.9467-.59-1.76-.59h-3.16V20H45.1V5.72h7.7zm-1.1 6.46c.6667 0 1.19-.15 1.57-.45s.57-.83.57-1.59c0-.72-.1867-1.23-.56-1.53s-.9067-.45-1.6-.45h-3.44v4.02h3.46zm10.46-6.46v2.34h-2.84V5.72h2.84zm0 3.94V20h-2.84V9.66h2.84zm6.48-.28c1.3867 0 2.47.28 3.25.84s1.2167 1.38 1.31 2.46h-2.7c-.04-.4933-.22-.85-.54-1.07s-.7867-.33-1.4-.33c-.5333 0-.93.08-1.19.24s-.39.4-.39.72c0 .24.0867.44.26.6s.4367.3.79.42.7434.22 1.17.3c1.2933.2534 2.2066.5134 2.74.78s.9234.5867 1.17.96.37.8334.37 1.38c0 1.16-.4233 2.05-1.27 2.67s-1.9967.93-3.45.93c-1.52 0-2.7034-.3266-3.55-.98s-1.2833-1.54-1.31-2.66h2.7c0 .5334.2067.9567.62 1.27s.9334.47 1.56.47c.5334 0 .9767-.1166 1.33-.35s.53-.5567.53-.97c0-.2667-.11-.4867-.33-.66s-.53-.3267-.93-.46-1.02-.2867-1.86-.46c-.6666-.1334-1.26-.3134-1.78-.54s-.9166-.5234-1.19-.89-.41-.8167-.41-1.35c0-.68.1634-1.2733.49-1.78s.8267-.89 1.5-1.15 1.51-.39 2.51-.39zm11.28 0c.9733 0 1.84.2266 2.6.68s1.3567 1.11 1.79 1.97.65 1.85.65 2.97c0 .1066-.0067.28-.02.52h-7.46c.0267.8266.2433 1.47.65 1.93s1.03.69 1.87.69c.52 0 .9966-.13 1.43-.39s.71-.5767.83-.95h2.5c-.7334 2.32-2.3466 3.48-4.84 3.48-.9467-.0134-1.8233-.22-2.63-.62s-1.45-1.0233-1.93-1.87-.72-1.83-.72-2.95c0-1.0533.2433-2.0134.73-2.88s1.1333-1.5133 1.94-1.94 1.6767-.64 2.61-.64zm2.18 4.34c-.1333-.7733-.38-1.3333-.74-1.68s-.8733-.52-1.54-.52c-.6933 0-1.24.1967-1.64.59s-.6333.93-.7 1.61h4.62z" transform="matrix(3.15657 0 0 3.15657 121.4848 21.0177)"/>
</svg>
