<?xml version="1.0" encoding="UTF-8" standalone="no"?>
<svg
   width="1280"
   height="640"
   viewBox="0 0 498.77338 165.33328"
   version="1.1"
   id="svg5"
   sodipodi:docname="SparkPdfDatasourceGithub.svg"
   inkscape:version="1.2.2 (b0a8486541, 2022-12-01)"
   inkscape:export-filename="StarbRiseGithub1.png"
   inkscape:export-xdpi="96"
   inkscape:export-ydpi="96"
   xmlns:inkscape="http://www.inkscape.org/namespaces/inkscape"
   xmlns:sodipodi="http://sodipodi.sourceforge.net/DTD/sodipodi-0.dtd"
   xmlns:xlink="http://www.w3.org/1999/xlink"
   xmlns="http://www.w3.org/2000/svg"
   xmlns:svg="http://www.w3.org/2000/svg">
  <sodipodi:namedview
     id="namedview5"
     pagecolor="#ffffff"
     bordercolor="#000000"
     borderopacity="0.25"
     inkscape:showpageshadow="2"
     inkscape:pageopacity="0.0"
     inkscape:pagecheckerboard="0"
     inkscape:deskcolor="#d1d1d1"
     inkscape:zoom="0.6363961"
     inkscape:cx="631.68206"
     inkscape:cy="463.54778"
     inkscape:window-width="2560"
     inkscape:window-height="1284"
     inkscape:window-x="0"
     inkscape:window-y="32"
     inkscape:window-maximized="1"
     inkscape:current-layer="svg5"
     showgrid="false" />
  <defs
     id="defs4">
    <linearGradient
       id="a"
       x1="18"
       y1="18"
       x2="82"
       y2="18"
       gradientUnits="userSpaceOnUse"
       gradientTransform="matrix(1.30208,0,0,1.30208,3.8614316,-33.510287)">
      <stop
         offset="0"
         stop-color="#2d388a"
         id="stop1" />
      <stop
         offset="1"
         stop-color="#00aeef"
         id="stop2" />
    </linearGradient>
    <linearGradient
       id="b"
       gradientTransform="matrix(7.5011281,0,0,1.3283248,173.215,25.585688)"
       x1="0.2019901"
       y1="12.784785"
       x2="35.752247"
       y2="12.784785"
       gradientUnits="userSpaceOnUse">
      <stop
         offset="0"
         stop-color="#2d388a"
         id="stop3" />
      <stop
         offset="1"
         stop-color="#00aeef"
         id="stop4" />
    </linearGradient>
    <linearGradient
       id="SvgjsLinearGradient8358">
      <stop
         id="SvgjsStop8359"
         stop-color="#2d388a"
         offset="0" />
      <stop
         id="SvgjsStop8360"
         stop-color="#00aeef"
         offset="1" />
    </linearGradient>
    <linearGradient
       inkscape:collect="always"
       xlink:href="#SvgjsLinearGradient8358"
       id="linearGradient20"
       gradientTransform="scale(3.2279715,0.30979208)"
       x1="0.42751306"
       y1="17.366488"
       x2="48.717903"
       y2="17.366488"
       gradientUnits="userSpaceOnUse" />
    <linearGradient
       inkscape:collect="always"
       xlink:href="#SvgjsLinearGradient8358"
       id="linearGradient18"
       gradientTransform="scale(3.0152951,0.3316425)"
       x1="0"
       y1="16.222286"
       x2="55.059288"
       y2="16.222286"
       gradientUnits="userSpaceOnUse" />
    <linearGradient
       inkscape:collect="always"
       xlink:href="#SvgjsLinearGradient8358"
       id="linearGradient2"
       gradientUnits="userSpaceOnUse"
       gradientTransform="scale(3.2279715,0.30979208)"
       x1="0.42751306"
       y1="17.366488"
       x2="48.717903"
       y2="17.366488" />
    <linearGradient
       inkscape:collect="always"
       xlink:href="#SvgjsLinearGradient8358"
       id="linearGradient3"
       gradientUnits="userSpaceOnUse"
       gradientTransform="scale(3.0152951,0.3316425)"
       x1="0"
       y1="16.222286"
       x2="55.059288"
       y2="16.222286" />
  </defs>
  <path
     fill="url(#a)"
     d="m 76.777905,-10.072848 c -2.861057,0 -5.208317,2.3472603 -5.208317,5.2083203 0,2.413015 1.66692,4.42277499 3.906237,5.00493499 V 13.364592 H 62.455028 V 0.34379229 H 45.324476 c -0.58203,-2.23931699 -2.59179,-3.90623999 -5.004805,-3.90623999 -2.86106,0 -5.20832,2.34726 -5.20832,5.20832 0,2.86106 2.34726,5.20832 5.20832,5.20832 2.413015,0 4.422775,-1.666923 5.004935,-3.90624 H 59.850868 V 13.364592 h -9.114557 v 9.11456 H 37.511996 c -0.58203,-2.239317 -2.59179,-3.90624 -5.004805,-3.90624 -2.86106,0 -5.20832,2.34726 -5.20832,5.20832 0,2.86106 2.34726,5.20832 5.20832,5.20832 2.413015,0 4.422775,-1.666923 5.004935,-3.90624 h 13.224185 v 13.0208 h -13.0208 v 17.130555 c -2.239317,0.58203 -3.90624,2.59179 -3.90624,5.00481 0,2.861062 2.34726,5.208322 5.20832,5.208322 2.86106,0 5.20832,-2.34726 5.20832,-5.208322 0,-2.41302 -1.666923,-4.42278 -3.90624,-5.00494 V 40.708272 h 10.41664 v 9.11456 h 9.114557 v 13.224317 c -2.23931,0.58203 -3.906237,2.59179 -3.906237,5.00481 0,2.86106 2.347257,5.20832 5.208317,5.20832 2.86106,0 5.20832,-2.34726 5.20832,-5.20832 0,-2.41302 -1.66692,-4.42278 -3.90624,-5.00494 V 49.822832 h 13.020797 v 13.020807 h 17.130557 c 0.58203,2.23931 2.59179,3.90624 5.0048,3.90624 2.861068,0 5.208328,-2.34726 5.208328,-5.208322 0,-2.86106 -2.34726,-5.20832 -5.208328,-5.20832 -2.41301,0 -4.42277,1.66692 -5.00493,3.90624 H 78.079985 V 49.822832 h 9.11456 v -9.11456 h 13.224325 c 0.58203,2.239317 2.59178,3.90624 5.0048,3.90624 2.86106,0 5.20832,-2.34726 5.20832,-5.20832 0,-2.86106 -2.34726,-5.20832 -5.20832,-5.20832 -2.41302,0 -4.42277,1.666923 -5.00493,3.90624 H 87.194545 v -13.0208 H 100.21535 V 7.9527573 c 2.23932,-0.58203 3.90624,-2.59179 3.90624,-5.004805 0,-2.86106001 -2.34726,-5.20832 -5.208324,-5.20832 -2.861064,0 -5.208324,2.34725999 -5.208324,5.20832 0,2.413015 1.66692,4.422775 3.90624,5.004935 V 22.479152 H 87.194545 v -9.11456 h -9.11456 V 0.14027729 c 2.23932,-0.58203 3.90624,-2.59178999 3.90624,-5.00480499 0,-2.86106 -2.34726,-5.2083203 -5.20832,-5.2083203 z m 0,2.6041603 c 1.45364,0 2.60416,1.150518 2.60416,2.60416 0,1.453642 -1.15052,2.60416 -2.60416,2.60416 -1.45364,0 -2.604157,-1.150518 -2.604157,-2.60416 0,-1.453642 1.150517,-2.60416 2.604157,-2.60416 z m -36.458234,6.51039999 c 1.453642,0 2.60416,1.150518 2.60416,2.60416001 0,1.453642 -1.150518,2.60416 -2.60416,2.60416 -1.453642,0 -2.60416,-1.150518 -2.60416,-2.60416 0,-1.45364201 1.150518,-2.60416001 2.60416,-2.60416001 z m 58.593595,1.30208 c 1.453644,0 2.604164,1.15051801 2.604164,2.60416001 0,1.453642 -1.15052,2.60416 -2.604164,2.60416 -1.453644,0 -2.604164,-1.150518 -2.604164,-2.60416 0,-1.453642 1.15052,-2.60416001 2.604164,-2.60416001 z M 53.340471,15.968752 h 31.249914 v 31.24992 H 53.340471 Z m -20.83328,5.20832 c 1.453642,0 2.60416,1.150518 2.60416,2.60416 0,1.453642 -1.150518,2.60416 -2.60416,2.60416 -1.453642,0 -2.60416,-1.150518 -2.60416,-2.60416 0,-1.453642 1.150518,-2.60416 2.60416,-2.60416 z m 72.916479,15.62496 c 1.45364,0 2.60416,1.150518 2.60416,2.60416 0,1.453642 -1.15052,2.60416 -2.60416,2.60416 -1.45364,0 -2.60416,-1.150518 -2.60416,-2.60416 0,-1.453642 1.15052,-2.60416 2.60416,-2.60416 z M 39.017591,57.635317 c 1.453642,0 2.60416,1.15051 2.60416,2.60416 0,1.45364 -1.150518,2.604162 -2.60416,2.604162 -1.453642,0 -2.60416,-1.150522 -2.60416,-2.604162 0,-1.45365 1.150518,-2.60416 2.60416,-2.60416 z m 58.593591,1.30208 c 1.453644,0 2.604168,1.15051 2.604168,2.60416 0,1.453642 -1.150524,2.604162 -2.604168,2.604162 -1.45364,0 -2.60416,-1.15052 -2.60416,-2.604162 0,-1.45365 1.15052,-2.60416 2.60416,-2.60416 z m -36.458234,6.510402 c 1.45364,0 2.60416,1.15051 2.60416,2.60416 0,1.45364 -1.15052,2.60416 -2.60416,2.60416 -1.45364,0 -2.60416,-1.15052 -2.60416,-2.60416 0,-1.45365 1.15052,-2.60416 2.60416,-2.60416 z"
     style="font-style:normal;font-variant:normal;font-weight:400;font-stretch:normal;font-size:medium;line-height:normal;font-family:Sans;-inkscape-font-specification:Sans;text-indent:0;text-align:start;text-decoration:none;text-decoration-line:none;letter-spacing:normal;word-spacing:normal;text-transform:none;writing-mode:lr-tb;direction:ltr;baseline-shift:baseline;text-anchor:start;display:inline;overflow:visible;visibility:visible;opacity:1;fill:url(#a);fill-opacity:1;stroke:none;stroke-width:2.60416;marker:none;enable-background:accumulate"
     id="path4" />
  <text
     xml:space="preserve"
     style="font-style:normal;font-variant:normal;font-weight:bold;font-stretch:normal;font-size:10.3911px;font-family:Sans;-inkscape-font-specification:'Sans Bold';fill:#284494;fill-opacity:1;stroke-width:0.389667"
     x="261.89252"
     y="152.28593"
     id="text1"><tspan
       id="tspan1"
       style="font-style:normal;font-variant:normal;font-weight:bold;font-stretch:normal;font-size:10.3911px;font-family:Sans;-inkscape-font-specification:'Sans Bold';text-align:center;text-anchor:middle;fill:#284494;fill-opacity:1;stroke-width:0.389667"
       x="261.89252"
       y="152.28593"
       sodipodi:role="line">The project provides a custom data source for the Apache Spark</tspan><tspan
       style="font-style:normal;font-variant:normal;font-weight:bold;font-stretch:normal;font-size:10.3911px;font-family:Sans;-inkscape-font-specification:'Sans Bold';fill:#284494;fill-opacity:1;stroke-width:0.389667"
       x="263.24338"
       y="165.27481"
       sodipodi:role="line"
       id="tspan3"><tspan
   style="text-align:center;text-anchor:middle"
   id="tspan4"> that allows you to read PDF files into the Spark DataFrame in easy way.</tspan> </tspan></text>
  <g
     id="SvgjsG3061"
     featurekey="n48U4P-0"
     transform="matrix(2.0342556,0,0,2.0342556,124.1647,6.9969915)"
     fill="url(#SvgjsLinearGradient3069)"
     style="fill:url(#linearGradient20)">
    <path
       d="m 7.84,5.72 c 1.52,0 2.72,0.41334 3.6,1.24 0.88,0.82666 1.32,1.94 1.32,3.34 0,1.4133 -0.44,2.53 -1.32,3.35 -0.88,0.82 -2.0734,1.23 -3.58,1.23 H 4.52 V 20 H 1.38 V 5.72 Z m -0.82,6.72 c 0.90666,0 1.5833,-0.16666 2.03,-0.5 C 9.4967,11.60666 9.72,11.06 9.72,10.3 9.72,9.56666 9.50334,9.0267 9.07,8.68 8.63666,8.3333 7.96,8.16 7.04,8.16 H 4.52 v 4.28 z M 20.84,5.72 c 2.0266,0 3.62,0.62666 4.78,1.88 1.16,1.25334 1.74,2.98 1.74,5.18 0,2.28 -0.58334,4.0534 -1.75,5.32 -1.16666,1.2666 -2.73,1.9 -4.69,1.9 h -6.2 V 5.72 Z m -0.2,11.64 c 1.1333,0 2.0134,-0.37334 2.64,-1.12 0.6266,-0.74666 0.94,-1.8067 0.94,-3.18 0,-1.5733 -0.33666,-2.75 -1.01,-3.53 C 22.53666,8.75 21.5,8.36 20.1,8.36 h -2.24 v 9 z M 39.58,5.72 v 2.64 h -6.9 v 3.3 h 5.98 V 14.1 H 32.68 V 20 H 29.54 V 5.72 Z m 13.5,0 c 2.0266,0 3.62,0.62666 4.78,1.88 1.16,1.25334 1.74,2.98 1.74,5.18 0,2.28 -0.58334,4.0534 -1.75,5.32 -1.16666,1.2666 -2.73,1.9 -4.69,1.9 h -6.2 V 5.72 Z m -0.2,11.64 c 1.1333,0 2.0134,-0.37334 2.64,-1.12 0.6266,-0.74666 0.94,-1.8067 0.94,-3.18 0,-1.5733 -0.33666,-2.75 -1.01,-3.53 C 54.77666,8.75 53.74,8.36 52.34,8.36 H 50.1 v 9 z M 66.24,9.38 c 3.0134,0.01334 4.52,0.9933 4.52,2.94 v 5.48 c 0,1.0133 0.12,1.7467 0.36,2.2 h -2.88 c -0.10666,-0.32 -0.17332,-0.65334 -0.19998,-1 -0.84,0.85334 -2,1.28 -3.48,1.28 -1.08,0 -1.9367,-0.27334 -2.57,-0.82 -0.6333,-0.54666 -0.95,-1.3067 -0.95,-2.28 0,-0.94666 0.3,-1.68 0.9,-2.2 0.61334,-0.54666 1.7267,-0.89332 3.34,-1.04 1.1467,-0.12 1.8733,-0.27 2.18,-0.45 0.3067,-0.18 0.46,-0.45666 0.46,-0.83 0,-0.46666 -0.14,-0.81332 -0.42,-1.04 -0.28,-0.22668 -0.74666,-0.34 -1.4,-0.34 -0.6,0 -1.0533,0.12334 -1.36,0.37 -0.3067,0.24666 -0.48666,0.64332 -0.54,1.19 h -2.84 c 0.06666,-1.1333 0.53332,-1.9933 1.4,-2.58 0.86668,-0.5867 2.0266,-0.88 3.48,-0.88 z m -2.36,7.68 c 0,0.88 0.58,1.32 1.74,1.32 1.52,-0.01334 2.2866,-0.79334 2.3,-2.34 v -1.1 c -0.22666,0.22666 -0.8,0.39332 -1.72,0.49998 -0.8,0.09334 -1.3867,0.25668 -1.76,0.49002 -0.3733,0.23334 -0.56,0.61 -0.56,1.13 z m 12.68,-10.5 2e-5,3.1 h 2.08 v 1.9 h -2.08 v 5.12 c 0,0.48 0.08,0.8 0.24,0.96 0.16,0.16 0.48,0.24 0.96,0.24 0.34666,0 0.64,-0.02666 0.88,-0.08 v 2.22 c -0.4,0.06666 -0.96,0.1 -1.68,0.1 -1.0933,0 -1.9067,-0.18666 -2.44,-0.56 -0.5333,-0.37334 -0.8,-1.02 -0.8,-1.94 v -6.06 h -1.72 v -1.9 h 1.72 v -3.1 h 2.84 z m 8.2,2.82 c 3.0134,0.01334 4.52,0.9933 4.52,2.94 v 5.48 c 0,1.0133 0.12,1.7467 0.36,2.2 h -2.88 c -0.10666,-0.32 -0.17332,-0.65334 -0.19998,-1 -0.84,0.85334 -2,1.28 -3.48,1.28 -1.08,0 -1.9367,-0.27334 -2.57,-0.82 -0.6333,-0.54666 -0.95,-1.3067 -0.95,-2.28 0,-0.94666 0.3,-1.68 0.9,-2.2 0.61334,-0.54666 1.7267,-0.89332 3.34,-1.04 1.1467,-0.12 1.8733,-0.27 2.18,-0.45 0.3067,-0.18 0.46,-0.45666 0.46,-0.83 0,-0.46666 -0.14,-0.81332 -0.42,-1.04 -0.28,-0.22668 -0.74666,-0.34 -1.4,-0.34 -0.6,0 -1.0533,0.12334 -1.36,0.37 -0.3067,0.24666 -0.48666,0.64332 -0.54,1.19 h -2.84 c 0.06666,-1.1333 0.53332,-1.9933 1.4,-2.58 0.86668,-0.5867 2.0266,-0.88 3.48,-0.88 z m -2.36,7.68 c 0,0.88 0.58,1.32 1.74,1.32 1.52,-0.01334 2.2866,-0.79334 2.3,-2.34 v -1.1 c -0.22666,0.22666 -0.8,0.39332 -1.72,0.49998 -0.8,0.09334 -1.3867,0.25668 -1.76,0.49002 -0.3733,0.23334 -0.56,0.61 -0.56,1.13 z M 96.7,5.38 c 1.7467,0 3.1366,0.40002 4.17,1.2 1.0334,0.79998 1.55,1.9333 1.55,3.4 H 99.38 C 99.34,9.26 99.09666,8.72 98.65,8.36 98.20334,8 97.5133,7.82 96.58,7.82 95.92666,7.82 95.4,7.96334 95,8.25 c -0.4,0.28666 -0.6,0.68332 -0.6,1.19 0,0.41334 0.12334,0.71334 0.37,0.9 0.24666,0.18666 0.59666,0.35332 1.05,0.49998 0.45334,0.14666 1.2467,0.36 2.38,0.64 1.1867,0.29334 2.1,0.61334 2.74,0.96 0.64,0.34666 1.1267,0.79 1.46,1.33 0.3333,0.54 0.5,1.2033 0.5,1.99 0,0.90666 -0.24,1.7133 -0.72,2.42 -0.48,0.7067 -1.18,1.2433 -2.1,1.61 -0.92,0.3667 -1.96,0.55 -3.12,0.55 -1.7733,0 -3.23,-0.44334 -4.37,-1.33 -1.14,-0.88666 -1.71,-2.1034 -1.71,-3.65 v -0.1 h 3.04 c 0,0.84 0.28666,1.49 0.86,1.95 0.57334,0.46 1.3333,0.69 2.28,0.69 0.84,0 1.5167,-0.15 2.03,-0.45 0.5133,-0.3 0.77,-0.74334 0.77,-1.33 0,-0.38666 -0.14,-0.71332 -0.42,-0.97998 -0.28,-0.26666 -0.65334,-0.48332 -1.12,-0.64998 -0.46666,-0.16666 -1.2533,-0.37666 -2.36,-0.63 -1.28,-0.32 -2.2134,-0.66 -2.8,-1.02 -0.5866,-0.36 -1.0333,-0.79666 -1.34,-1.31 -0.3067,-0.51334 -0.46,-1.13 -0.46,-1.85 0,-0.89334 0.25666,-1.6733 0.77,-2.34 0.51334,-0.6667 1.1833,-1.16 2.01,-1.48 0.8267,-0.32 1.68,-0.48 2.56,-0.48 z m 12.78,4 c 1.6533,0 2.96,0.50334 3.92,1.51 0.96,1.00666 1.44,2.3234 1.44,3.95 0,1.64 -0.49,2.9566 -1.47,3.95 -0.98,0.9934 -2.2766,1.49 -3.89,1.49 -1.64,0 -2.94,-0.50334 -3.9,-1.51 -0.96,-1.00666 -1.44,-2.3166 -1.44,-3.93 0,-1.6667 0.49,-2.9934 1.47,-3.98 0.98,-0.9866 2.27,-1.48 3.87,-1.48 z m -2.5,5.46 c 0,1.0533 0.21334,1.8666 0.64,2.44 0.42666,0.5734 1.0467,0.86 1.86,0.86 0.84,0 1.47,-0.29334 1.89,-0.88 0.42,-0.58666 0.63,-1.3933 0.63,-2.42 0,-1.0667 -0.21666,-1.8867 -0.65,-2.46 -0.43334,-0.5733 -1.0633,-0.86 -1.89,-0.86 -0.8,0 -1.4133,0.28666 -1.84,0.86 -0.4267,0.57334 -0.64,1.3933 -0.64,2.46 z m 12.54,-5.18 v 5.86 c 0,0.8 0.12666,1.42 0.38,1.86 0.25334,0.44 0.73334,0.66 1.44,0.66 0.78666,0 1.35,-0.23334 1.69,-0.7 0.34,-0.46666 0.51,-1.2133 0.51,-2.24 V 9.66 h 2.84 V 20 h -2.7 v -1.44 h -0.06 c -0.70666,1.1467 -1.7667,1.72 -3.18,1.72 -1.3467,0 -2.31,-0.34334 -2.89,-1.03 -0.58,-0.68666 -0.87,-1.7433 -0.87,-3.17 V 9.66 Z m 15.06,-0.28 c 0.24,0 0.44668,0.03334 0.62002,0.1 v 2.64 c -0.30666,-0.06666 -0.64666,-0.1 -1.02,-0.1 -1.8667,0 -2.8,1.1067 -2.8,3.32 V 20 h -2.84 V 9.66 h 2.7 v 1.92 h 0.04 c 0.28,-0.66666 0.72334,-1.2 1.33,-1.6 0.60666,-0.4 1.2633,-0.6 1.97,-0.6 z m 6.34,0 c 1.4,0 2.54,0.35664 3.42,1.07 0.88,0.71336 1.36,1.6633 1.44,2.85 H 143 c -0.18666,-1.1867 -0.88666,-1.78 -2.1,-1.78 -0.74666,0 -1.3367,0.30666 -1.77,0.92 -0.4333,0.61334 -0.65,1.4267 -0.65,2.44 0,0.97334 0.20666,1.76 0.62,2.36 0.41334,0.6 0.99334,0.9 1.74,0.9 1.2933,0 2.0466,-0.7 2.26,-2.1 h 2.74 c -0.18666,1.3733 -0.71666,2.4234 -1.59,3.15 -0.87334,0.7266 -2.0034,1.09 -3.39,1.09 -1.5333,0 -2.7866,-0.49 -3.76,-1.47 -0.9734,-0.98 -1.46,-2.2566 -1.46,-3.83 0,-1.7067 0.48,-3.0666 1.44,-4.08 0.96,-1.0134 2.24,-1.52 3.84,-1.52 z m 11.3,0 c 0.97334,0 1.84,0.22664 2.6,0.67998 0.76,0.45334 1.3567,1.11 1.79,1.97 0.4333,0.86 0.65,1.85 0.65,2.97 0,0.10666 -0.007,0.28 -0.02,0.52 h -7.46 c 0.0267,0.82666 0.24332,1.47 0.64998,1.93 0.40666,0.46 1.03,0.69 1.87,0.69 0.52,0 0.99666,-0.13 1.43,-0.39 0.43334,-0.26 0.71,-0.57666 0.83,-0.95 h 2.5 c -0.73334,2.32 -2.3466,3.48 -4.84,3.48 -0.94666,-0.01334 -1.8233,-0.22 -2.63,-0.62 -0.8067,-0.4 -1.45,-1.0233 -1.93,-1.87 -0.48,-0.8467 -0.72,-1.83 -0.72,-2.95 0,-1.0533 0.24334,-2.0134 0.73,-2.88 0.48666,-0.8666 1.1333,-1.5133 1.94,-1.94 0.8067,-0.4267 1.6767,-0.64 2.61,-0.64 z m 2.18,4.34 c -0.13334,-0.77334 -0.38,-1.3333 -0.74,-1.68 -0.36,-0.3467 -0.87334,-0.52 -1.54,-0.52 -0.69334,0 -1.24,0.19666 -1.64,0.59 -0.4,0.39334 -0.63334,0.93 -0.7,1.61 z"
       id="path2-6"
       style="fill:url(#linearGradient2)" />
  </g>
  <g
     id="SvgjsG3062"
     featurekey="sloganFeature-0"
     transform="matrix(0.71754676,0,0,0.71754676,212.95206,68.668866)"
     fill="url(#SvgjsLinearGradient3072)"
     style="fill:url(#linearGradient18)">
    <path
       d="m 5.16,5.72 c 0.24,0 0.74,0.02668 1.5,0.08002 v 2.12 c -0.37334,-0.04 -0.71334,-0.06 -1.02,-0.06 -0.41334,0 -0.7,0.09 -0.86,0.27 -0.16,0.18 -0.24,0.49 -0.24,0.93 v 0.6 H 6.5 v 1.9 H 4.54 v 8.44 H 1.7 v -8.44 H 0 v -1.9 h 1.7 v -0.76 c 0,-1.0133 0.30334,-1.7967 0.91,-2.35 0.60666,-0.5533 1.4567,-0.83 2.55,-0.83 z m 7.6,3.66 c 1.6533,0 2.96,0.50334 3.92,1.51 0.96,1.00666 1.44,2.3234 1.44,3.95 0,1.64 -0.49,2.9566 -1.47,3.95 -0.98,0.9934 -2.2766,1.49 -3.89,1.49 -1.64,0 -2.94,-0.50334 -3.9,-1.51 -0.96,-1.00666 -1.44,-2.3166 -1.44,-3.93 0,-1.6667 0.49,-2.9934 1.47,-3.98 0.98,-0.9866 2.27,-1.48 3.87,-1.48 z m -2.5,5.46 c 0,1.0533 0.21334,1.8666 0.64,2.44 0.42666,0.5734 1.0467,0.86 1.86,0.86 0.84,0 1.47,-0.29334 1.89,-0.88 0.42,-0.58666 0.63,-1.3933 0.63,-2.42 0,-1.0667 -0.21666,-1.8867 -0.65,-2.46 -0.43334,-0.5733 -1.0633,-0.86 -1.89,-0.86 -0.8,0 -1.4133,0.28666 -1.84,0.86 -0.4267,0.57334 -0.64,1.3933 -0.64,2.46 z M 26,9.38 c 0.24,0 0.44668,0.03334 0.62002,0.1 v 2.64 c -0.30666,-0.06666 -0.64666,-0.1 -1.02,-0.1 -1.8667,0 -2.8,1.1067 -2.8,3.32 V 20 h -2.84 V 9.66 h 2.7 v 1.92 h 0.04 c 0.28,-0.66666 0.72334,-1.2 1.33,-1.6 0.60666,-0.4 1.2633,-0.6 1.97,-0.6 z M 40.72,5.72 46.06,20 H 42.8 L 41.72,16.82 H 36.38 L 35.26,20 H 32.08 L 37.5,5.72 Z m -1.66,3.52 -1.86,5.24 h 3.7 L 39.1,9.24 Z m 13.76,0.14 c 1.4267,0 2.5666,0.5 3.42,1.5 0.8534,1 1.28,2.3534 1.28,4.06 0,1.56 -0.41,2.84 -1.23,3.84 -0.82,1 -1.9233,1.5 -3.31,1.5 -1.36,0 -2.3934,-0.52 -3.1,-1.56 h -0.04 v 4.92 H 47 V 9.66 h 2.7 v 1.32 h 0.04 c 0.68,-1.0667 1.7067,-1.6 3.08,-1.6 z m -3.08,5.48 c 0,1.0133 0.21336,1.8133 0.64002,2.4 0.42666,0.5867 1.04,0.88 1.84,0.88 0.82666,0 1.4433,-0.29334 1.85,-0.88 0.4067,-0.58666 0.61,-1.3867 0.61,-2.4 0,-1.04 -0.22,-1.8567 -0.66,-2.45 -0.44,-0.5933 -1.0533,-0.89 -1.84,-0.89 -0.7867,0 -1.39,0.29334 -1.81,0.88 -0.42,0.58666 -0.63,1.4067 -0.63,2.46 z M 63.98,9.38 c 3.0134,0.01334 4.52,0.9933 4.52,2.94 v 5.48 c 0,1.0133 0.12,1.7467 0.36,2.2 h -2.88 c -0.10666,-0.32 -0.17332,-0.65334 -0.19998,-1 -0.84,0.85334 -2,1.28 -3.48,1.28 -1.08,0 -1.9367,-0.27334 -2.57,-0.82 -0.6333,-0.54666 -0.95,-1.3067 -0.95,-2.28 0,-0.94666 0.3,-1.68 0.9,-2.2 0.61334,-0.54666 1.7267,-0.89332 3.34,-1.04 1.1467,-0.12 1.8733,-0.27 2.18,-0.45 0.3067,-0.18 0.46,-0.45666 0.46,-0.83 0,-0.46666 -0.14,-0.81332 -0.42,-1.04 -0.28,-0.22668 -0.74666,-0.34 -1.4,-0.34 -0.6,0 -1.0533,0.12334 -1.36,0.37 -0.3067,0.24666 -0.48666,0.64332 -0.54,1.19 h -2.84 c 0.06666,-1.1333 0.53332,-1.9933 1.4,-2.58 0.86668,-0.5867 2.0266,-0.88 3.48,-0.88 z m -2.36,7.68 c 0,0.88 0.58,1.32 1.74,1.32 1.52,-0.01334 2.2866,-0.79334 2.3,-2.34 v -1.1 c -0.22666,0.22666 -0.8,0.39332 -1.72,0.49998 -0.8,0.09334 -1.3867,0.25668 -1.76,0.49002 -0.3733,0.23334 -0.56,0.61 -0.56,1.13 z M 75.66,9.38 c 1.4,0 2.54,0.35664 3.42,1.07 0.88,0.71336 1.36,1.6633 1.44,2.85 h -2.78 c -0.18666,-1.1867 -0.88666,-1.78 -2.1,-1.78 -0.74666,0 -1.3367,0.30666 -1.77,0.92 -0.4333,0.61334 -0.65,1.4267 -0.65,2.44 0,0.97334 0.20666,1.76 0.62,2.36 0.41334,0.6 0.99334,0.9 1.74,0.9 1.2933,0 2.0466,-0.7 2.26,-2.1 h 2.74 c -0.18666,1.3733 -0.71666,2.4234 -1.59,3.15 -0.87334,0.7266 -2.0034,1.09 -3.39,1.09 -1.5333,0 -2.7866,-0.49 -3.76,-1.47 -0.9734,-0.98 -1.46,-2.2566 -1.46,-3.83 0,-1.7067 0.48,-3.0666 1.44,-4.08 0.96,-1.0134 2.24,-1.52 3.84,-1.52 z m 9.36,-3.66 v 5.38 h 0.06 c 0.32,-0.53334 0.75334,-0.95334 1.3,-1.26 0.54666,-0.30666 1.1267,-0.46 1.74,-0.46 1.32,0 2.2766,0.33334 2.87,1 0.5934,0.66666 0.89,1.72 0.89,3.16 V 20 h -2.84 v -5.88 c 0,-0.84 -0.13666,-1.4667 -0.41,-1.88 -0.27334,-0.4133 -0.74334,-0.62 -1.41,-0.62 -0.76,0 -1.3167,0.23 -1.67,0.69 -0.3533,0.46 -0.53,1.2167 -0.53,2.27 V 20 H 82.18 V 5.72 Z m 13.8,3.66 c 0.97334,0 1.84,0.22664 2.6,0.67998 0.76,0.45334 1.3567,1.11 1.79,1.97 0.4333,0.86 0.65,1.85 0.65,2.97 0,0.10666 -0.007,0.28 -0.02,0.52 h -7.46 c 0.02666,0.82666 0.24332,1.47 0.64998,1.93 0.40666,0.46 1.03,0.69 1.87,0.69 0.52,0 0.99666,-0.13 1.43,-0.39 0.43334,-0.26 0.71,-0.57666 0.83,-0.95 h 2.5 c -0.73334,2.32 -2.3466,3.48 -4.84,3.48 -0.94666,-0.01334 -1.8233,-0.22 -2.63,-0.62 -0.8067,-0.4 -1.45,-1.0233 -1.93,-1.87 -0.48,-0.8467 -0.72,-1.83 -0.72,-2.95 0,-1.0533 0.24334,-2.0134 0.73,-2.88 0.48666,-0.8666 1.1333,-1.5133 1.94,-1.94 0.8067,-0.4267 1.6767,-0.64 2.61,-0.64 z m 2.18,4.34 c -0.13334,-0.77334 -0.38,-1.3333 -0.74,-1.68 -0.36,-0.3467 -0.87334,-0.52 -1.54,-0.52 -0.69334,0 -1.24,0.19666 -1.64,0.59 -0.4,0.39334 -0.63334,0.93 -0.7,1.61 z m 15.3,-8.34 c 1.7467,0 3.1366,0.40002 4.17,1.2 1.0334,0.79998 1.55,1.9333 1.55,3.4 h -3.04 C 118.94,9.26 118.69666,8.72 118.25,8.36 117.80334,8 117.1133,7.82 116.18,7.82 c -0.65334,0 -1.18,0.14334 -1.58,0.43 -0.4,0.28666 -0.6,0.68332 -0.6,1.19 0,0.41334 0.12334,0.71334 0.37,0.9 0.24666,0.18666 0.59666,0.35332 1.05,0.49998 0.45334,0.14666 1.2467,0.36 2.38,0.64 1.1867,0.29334 2.1,0.61334 2.74,0.96 0.64,0.34666 1.1267,0.79 1.46,1.33 0.3333,0.54 0.5,1.2033 0.5,1.99 0,0.90666 -0.24,1.7133 -0.72,2.42 -0.48,0.7067 -1.18,1.2433 -2.1,1.61 -0.92,0.3667 -1.96,0.55 -3.12,0.55 -1.7733,0 -3.23,-0.44334 -4.37,-1.33 -1.14,-0.88666 -1.71,-2.1034 -1.71,-3.65 v -0.1 h 3.04 c 0,0.84 0.28666,1.49 0.86,1.95 0.57334,0.46 1.3333,0.69 2.28,0.69 0.84,0 1.5167,-0.15 2.03,-0.45 0.5133,-0.3 0.77,-0.74334 0.77,-1.33 0,-0.38666 -0.14,-0.71332 -0.42,-0.97998 -0.28,-0.26666 -0.65334,-0.48332 -1.12,-0.64998 -0.46666,-0.16666 -1.2533,-0.37666 -2.36,-0.63 -1.28,-0.32 -2.2134,-0.66 -2.8,-1.02 -0.5866,-0.36 -1.0333,-0.79666 -1.34,-1.31 -0.3067,-0.51334 -0.46,-1.13 -0.46,-1.85 0,-0.89334 0.25666,-1.6733 0.77,-2.34 0.51334,-0.6667 1.1833,-1.16 2.01,-1.48 0.8267,-0.32 1.68,-0.48 2.56,-0.48 z m 13.58,4 c 1.4267,0 2.5666,0.5 3.42,1.5 0.8534,1 1.28,2.3534 1.28,4.06 0,1.56 -0.41,2.84 -1.23,3.84 -0.82,1 -1.9233,1.5 -3.31,1.5 -1.36,0 -2.3934,-0.52 -3.1,-1.56 h -0.04 v 4.92 h -2.84 V 9.66 h 2.7 v 1.32 h 0.04 c 0.68,-1.0667 1.7067,-1.6 3.08,-1.6 z m -3.08,5.48 c 0,1.0133 0.21336,1.8133 0.64002,2.4 0.42666,0.5867 1.04,0.88 1.84,0.88 0.82666,0 1.4433,-0.29334 1.85,-0.88 0.4067,-0.58666 0.61,-1.3867 0.61,-2.4 0,-1.04 -0.22,-1.8567 -0.66,-2.45 -0.44,-0.5933 -1.0533,-0.89 -1.84,-0.89 -0.7867,0 -1.39,0.29334 -1.81,0.88 -0.42,0.58666 -0.63,1.4067 -0.63,2.46 z m 14.24,-5.48 c 3.0134,0.01334 4.52,0.9933 4.52,2.94 v 5.48 c 0,1.0133 0.12,1.7467 0.36,2.2 h -2.88 c -0.10666,-0.32 -0.17332,-0.65334 -0.19998,-1 -0.84,0.85334 -2,1.28 -3.48,1.28 -1.08,0 -1.9367,-0.27334 -2.57,-0.82 -0.6333,-0.54666 -0.95,-1.3067 -0.95,-2.28 0,-0.94666 0.3,-1.68 0.9,-2.2 0.61334,-0.54666 1.7267,-0.89332 3.34,-1.04 1.1467,-0.12 1.8733,-0.27 2.18,-0.45 0.3067,-0.18 0.46,-0.45666 0.46,-0.83 0,-0.46666 -0.14,-0.81332 -0.42,-1.04 -0.28,-0.22668 -0.74666,-0.34 -1.4,-0.34 -0.6,0 -1.0533,0.12334 -1.36,0.37 -0.3067,0.24666 -0.48666,0.64332 -0.54,1.19 h -2.84 c 0.0667,-1.1333 0.53332,-1.9933 1.4,-2.58 0.86668,-0.5867 2.0266,-0.88 3.48,-0.88 z m -2.36,7.68 c 0,0.88 0.58,1.32 1.74,1.32 1.52,-0.01334 2.2866,-0.79334 2.3,-2.34 v -1.1 c -0.22666,0.22666 -0.8,0.39332 -1.72,0.49998 -0.8,0.09334 -1.3867,0.25668 -1.76,0.49002 -0.3733,0.23334 -0.56,0.61 -0.56,1.13 z M 153.8,9.38 c 0.24,0 0.44668,0.03334 0.62002,0.1 v 2.64 c -0.30666,-0.06666 -0.64666,-0.1 -1.02,-0.1 -1.8667,0 -2.8,1.1067 -2.8,3.32 V 20 h -2.84 V 9.66 h 2.7 v 1.92 h 0.04 c 0.28,-0.66666 0.72334,-1.2 1.33,-1.6 0.60666,-0.4 1.2633,-0.6 1.97,-0.6 z m 4.84,-3.66 v 7.66 l 3.58,-3.72 h 3.36 l -3.9,3.8 4.34,6.54 h -3.44 l -2.84,-4.62 -1.1,1.06 V 20 H 155.8 V 5.72 Z"
       id="path3-7"
       style="fill:url(#linearGradient3)" />
  </g>
</svg>
